<?xml version="1.0" encoding="utf-8"?>
<!-- Generator: Adobe Illustrator 25.2.3, SVG Export Plug-In . SVG Version: 6.00 Build 0)  -->
<svg version="1.1" id="Layer_1" xmlns="http://www.w3.org/2000/svg" xmlns:xlink="http://www.w3.org/1999/xlink" x="0px" y="0px"
	 viewBox="0 0 35.88 35.88" style="enable-background:new 0 0 35.88 35.88;" xml:space="preserve">
<style type="text/css">
	.st0{opacity:0.42;}
	.st1{fill:#F59696;}
	.st2{fill:#4F74F7;}
	.st3{fill:#D5E3F1;}
	.st4{fill-rule:evenodd;clip-rule:evenodd;fill:#4F74F7;}
	.st5{fill:#F05160;}
	.st6{fill:#FFFFFF;}
	.st7{fill:#FFDD53;}
	.st8{fill:#E9FFFF;}
	.st9{fill:#F2D7B8;}
	.st10{fill:#EBEBEC;}
	.st11{fill:#FFC9A8;stroke:#BD3400;stroke-width:0.3201;stroke-miterlimit:10;}
	.st12{fill:#192737;}
</style>
<g>
	<g>
		<path class="st2" d="M25.78,35.88H10.1C4.53,35.88,0,31.35,0,25.78V10.1C0,4.53,4.53,0,10.1,0h15.68c5.57,0,10.1,4.53,10.1,10.1
			v15.68C35.88,31.35,31.35,35.88,25.78,35.88z M10.1,1.46c-4.77,0-8.65,3.88-8.65,8.65v15.68c0,4.77,3.88,8.65,8.65,8.65h15.68
			c4.77,0,8.65-3.88,8.65-8.65V10.1c0-4.77-3.88-8.65-8.65-8.65H10.1z"/>
	</g>
	<g>
		<path class="st2" d="M22,35.16h-1.46V15.03c-0.01-0.02-0.22-2.31,1.53-3.91c1.54-1.41,4.03-1.79,7.4-1.14l-0.28,1.43
			c-2.85-0.55-4.97-0.28-6.13,0.77C21.86,13.28,22,14.94,22,14.96L22,35.16z"/>
	</g>
	<g>
		<rect x="15.76" y="21.13" class="st2" width="11.02" height="1.46"/>
	</g>
</g>
</svg>
