<?xml version="1.0" encoding="utf-8"?>
<!-- Generator: Adobe Illustrator 25.2.3, SVG Export Plug-In . SVG Version: 6.00 Build 0)  -->
<svg version="1.1" id="Layer_1" xmlns="http://www.w3.org/2000/svg" xmlns:xlink="http://www.w3.org/1999/xlink" x="0px" y="0px"
	 viewBox="0 0 35.97 39.47" style="enable-background:new 0 0 35.97 39.47;" xml:space="preserve">
<style type="text/css">
	.st0{opacity:0.42;}
	.st1{fill:#F59696;}
	.st2{fill:#4F74F7;}
	.st3{fill:#D5E3F1;}
	.st4{fill-rule:evenodd;clip-rule:evenodd;fill:#4F74F7;}
	.st5{fill:#F05160;}
	.st6{fill:#FFFFFF;}
	.st7{fill:#FFDD53;}
	.st8{fill:#E9FFFF;}
	.st9{fill:#F2D7B8;}
	.st10{fill:#EBEBEC;}
	.st11{fill:#FFC9A8;stroke:#BD3400;stroke-width:0.3201;stroke-miterlimit:10;}
	.st12{fill:#192737;}
</style>
<g>
	<g>
		<path class="st2" d="M0.91,39.47l2.68-10.71C1.24,25.63,0,21.92,0,17.99C0,8.07,8.07,0,17.99,0s17.99,8.07,17.99,17.99
			S27.9,35.97,17.99,35.97c-2.2,0-4.35-0.39-6.38-1.17L0.91,39.47z M17.99,1.46c-9.11,0-16.53,7.42-16.53,16.53
			c0,3.72,1.21,7.24,3.49,10.16l0.22,0.28l-2.13,8.53l8.54-3.73l0.28,0.11c1.95,0.78,4.01,1.17,6.13,1.17
			c9.11,0,16.53-7.42,16.53-16.53S27.1,1.46,17.99,1.46z"/>
	</g>
	<g>
		<path class="st2" d="M21.63,27.12c-2.58,0-5.45-1.67-8.55-4.99c-3.62-3.88-5.1-7.22-4.39-9.91c0.76-2.89,3.73-3.85,3.86-3.89
			l0.4-0.13l3.72,3.47l0.05,0.22c0.43,1.94-0.59,3.27-1.62,4l4.87,4.51c0.85-1.47,2.87-1.89,2.98-1.91l0.38-0.08l4.24,4.24
			l-0.2,0.46c-0.06,0.14-1.49,3.36-4.78,3.93C22.29,27.1,21.96,27.12,21.63,27.12z M12.61,9.87c-0.68,0.31-2.1,1.14-2.51,2.73
			c-0.56,2.15,0.84,5.1,4.05,8.54c3.09,3.31,5.93,4.86,8.21,4.47c1.88-0.32,3.02-1.88,3.47-2.65l-2.94-2.94
			c-0.61,0.2-1.78,0.71-1.81,1.74l-0.06,1.59l-8.5-7.87l1.1-0.42c0.21-0.08,1.99-0.83,1.73-2.64L12.61,9.87z"/>
	</g>
</g>
</svg>
